<svg xmlns="http://www.w3.org/2000/svg" xmlns:xlink="http://www.w3.org/1999/xlink" width="2000" zoomAndPan="magnify" viewBox="0 0 1500 2250.000011" height="3000" preserveAspectRatio="xMidYMid meet" version="1.0"><defs><g/><clipPath id="8aadea8a1f"><path d="M 0.332031 0 L 1499.664062 0 L 1499.664062 2249 L 0.332031 2249 Z M 0.332031 0 " clip-rule="nonzero"/></clipPath><clipPath id="bcdb6d16fb"><path d="M 488.304688 359.546875 L 1016 359.546875 L 1016 887 L 488.304688 887 Z M 488.304688 359.546875 " clip-rule="nonzero"/></clipPath></defs><g clip-path="url(#8aadea8a1f)"><path fill="#ffffff" d="M 0.332031 0 L 1499.667969 0 L 1499.667969 2249 L 0.332031 2249 Z M 0.332031 0 " fill-opacity="1" fill-rule="nonzero"/><path fill="#090326" d="M 0.332031 0 L 1499.667969 0 L 1499.667969 2249 L 0.332031 2249 Z M 0.332031 0 " fill-opacity="1" fill-rule="nonzero"/></g><g clip-path="url(#bcdb6d16fb)"><path fill="#ffffff" d="M 752.007812 886.957031 C 606.601562 886.957031 488.304688 768.660156 488.304688 623.25 C 488.304688 477.839844 606.601562 359.546875 752.007812 359.546875 C 897.417969 359.546875 1015.714844 477.84375 1015.714844 623.25 C 1015.714844 768.660156 897.417969 886.957031 752.007812 886.957031 Z M 752.007812 372.234375 C 613.597656 372.234375 500.992188 484.839844 500.992188 623.25 C 500.992188 761.664062 613.597656 874.269531 752.007812 874.269531 C 890.421875 874.269531 1003.027344 761.664062 1003.027344 623.25 C 1003.027344 484.839844 890.421875 372.234375 752.007812 372.234375 Z M 752.007812 372.234375 " fill-opacity="1" fill-rule="nonzero"/></g><path fill="#ffffff" d="M 570.96875 810.636719 C 569.34375 810.636719 567.722656 810.015625 566.480469 808.777344 C 564.003906 806.300781 564.003906 802.289062 566.480469 799.808594 L 928.570312 437.71875 C 931.050781 435.242188 935.0625 435.242188 937.542969 437.71875 C 940.019531 440.199219 940.019531 444.210938 937.542969 446.6875 L 575.453125 808.777344 C 574.214844 810.015625 572.59375 810.636719 570.96875 810.636719 Z M 570.96875 810.636719 " fill-opacity="1" fill-rule="nonzero"/><path fill="#ffffff" d="M 804.375 593.59375 C 798.734375 593.59375 793.175781 592.117188 788.304688 589.3125 C 785.269531 587.566406 784.226562 583.691406 785.96875 580.648438 C 787.71875 577.613281 791.59375 576.570312 794.632812 578.316406 C 797.578125 580.011719 800.949219 580.90625 804.375 580.90625 C 815.171875 580.90625 823.953125 572.125 823.953125 561.328125 C 823.953125 557.898438 823.058594 554.527344 821.363281 551.582031 C 819.617188 548.542969 820.660156 544.667969 823.695312 542.917969 C 826.734375 541.175781 830.617188 542.21875 832.363281 545.253906 C 835.164062 550.125 836.640625 555.683594 836.640625 561.328125 C 836.640625 579.121094 822.167969 593.59375 804.375 593.59375 Z M 804.375 593.59375 " fill-opacity="1" fill-rule="nonzero"/><path fill="#ffffff" d="M 778.453125 567.671875 C 774.953125 567.671875 772.109375 564.832031 772.109375 561.328125 C 772.109375 543.539062 786.585938 529.0625 804.375 529.0625 C 807.878906 529.0625 810.71875 531.90625 810.71875 535.40625 C 810.71875 538.910156 807.878906 541.75 804.375 541.75 C 793.582031 541.75 784.796875 550.535156 784.796875 561.328125 C 784.796875 564.832031 781.957031 567.671875 778.453125 567.671875 Z M 778.453125 567.671875 " fill-opacity="1" fill-rule="nonzero"/><path fill="#ffffff" d="M 628.589844 710.191406 C 627.296875 710.191406 625.992188 709.804688 624.867188 708.984375 C 622.03125 706.925781 621.402344 702.953125 623.460938 700.125 L 712.039062 578.210938 C 714.429688 574.921875 719.914062 574.925781 722.304688 578.207031 L 736.109375 597.207031 C 738.167969 600.042969 737.539062 604.011719 734.710938 606.070312 C 731.871094 608.144531 727.910156 607.5 725.84375 604.664062 L 717.171875 592.730469 L 633.730469 707.578125 C 632.484375 709.289062 630.554688 710.191406 628.589844 710.191406 Z M 628.589844 710.191406 " fill-opacity="1" fill-rule="nonzero"/><path fill="#ffffff" d="M 805.75 710.191406 C 803.785156 710.191406 801.855469 709.289062 800.613281 707.578125 L 761.945312 654.363281 C 759.886719 651.53125 760.515625 647.5625 763.351562 645.5 C 766.191406 643.4375 770.152344 644.070312 772.210938 646.90625 L 810.875 700.121094 C 812.9375 702.953125 812.308594 706.921875 809.472656 708.980469 C 808.347656 709.804688 807.039062 710.191406 805.75 710.191406 Z M 805.75 710.191406 " fill-opacity="1" fill-rule="nonzero"/><path fill="#ffffff" d="M 875.101562 710.191406 C 873.136719 710.191406 871.203125 709.289062 869.960938 707.578125 L 811.71875 627.410156 L 782.175781 668.074219 C 780.117188 670.910156 776.148438 671.539062 773.316406 669.480469 C 770.480469 667.421875 769.851562 663.449219 771.910156 660.621094 L 806.585938 612.890625 C 808.96875 609.601562 814.46875 609.601562 816.851562 612.890625 L 880.226562 700.125 C 882.285156 702.953125 881.65625 706.925781 878.820312 708.984375 C 877.699219 709.804688 876.390625 710.191406 875.101562 710.191406 Z M 875.101562 710.191406 " fill-opacity="1" fill-rule="nonzero"/><path fill="#ffffff" d="M 890.199219 755.863281 L 613.496094 755.863281 C 597.785156 755.863281 584.996094 743.082031 584.996094 727.367188 L 584.996094 519.457031 C 584.996094 503.742188 597.785156 490.960938 613.496094 490.960938 L 890.199219 490.960938 C 905.910156 490.960938 918.691406 503.742188 918.691406 519.457031 L 918.691406 727.367188 C 918.691406 743.082031 905.910156 755.863281 890.199219 755.863281 Z M 613.496094 503.648438 C 604.78125 503.648438 597.683594 510.738281 597.683594 519.457031 L 597.683594 727.367188 C 597.683594 736.085938 604.78125 743.175781 613.496094 743.175781 L 890.199219 743.175781 C 898.914062 743.175781 906.007812 736.085938 906.007812 727.367188 L 906.007812 519.457031 C 906.007812 510.738281 898.914062 503.648438 890.199219 503.648438 Z M 613.496094 503.648438 " fill-opacity="1" fill-rule="nonzero"/><g fill="#ffffff" fill-opacity="1"><g transform="translate(153.528058, 1165.447896)"><g><path d="M 8.28125 0 L 8.28125 -85.328125 L 39.859375 -85.328125 C 46.679688 -85.328125 52.328125 -84.1875 56.796875 -81.90625 C 61.265625 -79.632812 64.597656 -76.503906 66.796875 -72.515625 C 68.992188 -68.535156 70.09375 -64.066406 70.09375 -59.109375 C 70.09375 -54.398438 69.035156 -50.070312 66.921875 -46.125 C 64.804688 -42.1875 61.515625 -39.019531 57.046875 -36.625 C 52.578125 -34.226562 46.847656 -33.03125 39.859375 -33.03125 L 23.890625 -33.03125 L 23.890625 0 Z M 23.890625 -45.703125 L 38.890625 -45.703125 C 44.328125 -45.703125 48.242188 -46.898438 50.640625 -49.296875 C 53.035156 -51.703125 54.234375 -54.972656 54.234375 -59.109375 C 54.234375 -63.335938 53.035156 -66.648438 50.640625 -69.046875 C 48.242188 -71.441406 44.328125 -72.640625 38.890625 -72.640625 L 23.890625 -72.640625 Z M 23.890625 -45.703125 "/></g></g></g><g fill="#ffffff" fill-opacity="1"><g transform="translate(227.516016, 1165.447896)"><g><path d="M 36.9375 1.46875 C 31.082031 1.46875 25.816406 0.128906 21.140625 -2.546875 C 16.472656 -5.234375 12.773438 -8.953125 10.046875 -13.703125 C 7.328125 -18.460938 5.96875 -23.972656 5.96875 -30.234375 C 5.96875 -36.484375 7.347656 -41.984375 10.109375 -46.734375 C 12.878906 -51.492188 16.597656 -55.210938 21.265625 -57.890625 C 25.941406 -60.578125 31.207031 -61.921875 37.0625 -61.921875 C 42.820312 -61.921875 48.035156 -60.578125 52.703125 -57.890625 C 57.378906 -55.210938 61.078125 -51.492188 63.796875 -46.734375 C 66.523438 -41.984375 67.890625 -36.484375 67.890625 -30.234375 C 67.890625 -23.972656 66.523438 -18.460938 63.796875 -13.703125 C 61.078125 -8.953125 57.363281 -5.234375 52.65625 -2.546875 C 47.945312 0.128906 42.707031 1.46875 36.9375 1.46875 Z M 36.9375 -12.0625 C 41 -12.0625 44.53125 -13.582031 47.53125 -16.625 C 50.539062 -19.675781 52.046875 -24.210938 52.046875 -30.234375 C 52.046875 -36.242188 50.539062 -40.769531 47.53125 -43.8125 C 44.53125 -46.863281 41.039062 -48.390625 37.0625 -48.390625 C 32.914062 -48.390625 29.359375 -46.863281 26.390625 -43.8125 C 23.421875 -40.769531 21.9375 -36.242188 21.9375 -30.234375 C 21.9375 -24.210938 23.421875 -19.675781 26.390625 -16.625 C 29.359375 -13.582031 32.875 -12.0625 36.9375 -12.0625 Z M 36.9375 -12.0625 "/></g></g></g><g fill="#ffffff" fill-opacity="1"><g transform="translate(301.382091, 1165.447896)"><g><path d="M 32.90625 1.46875 C 27.539062 1.46875 22.828125 0.59375 18.765625 -1.15625 C 14.703125 -2.90625 11.453125 -5.320312 9.015625 -8.40625 C 6.578125 -11.5 5.113281 -15.078125 4.625 -19.140625 L 20.359375 -19.140625 C 20.847656 -16.785156 22.164062 -14.773438 24.3125 -13.109375 C 26.46875 -11.441406 29.253906 -10.609375 32.671875 -10.609375 C 36.078125 -10.609375 38.570312 -11.296875 40.15625 -12.671875 C 41.75 -14.054688 42.546875 -15.644531 42.546875 -17.4375 C 42.546875 -20.03125 41.40625 -21.796875 39.125 -22.734375 C 36.851562 -23.671875 33.6875 -24.582031 29.625 -25.46875 C 27.019531 -26.039062 24.375 -26.734375 21.6875 -27.546875 C 19.007812 -28.359375 16.550781 -29.394531 14.3125 -30.65625 C 12.082031 -31.914062 10.273438 -33.539062 8.890625 -35.53125 C 7.515625 -37.519531 6.828125 -39.976562 6.828125 -42.90625 C 6.828125 -48.269531 8.957031 -52.78125 13.21875 -56.4375 C 17.488281 -60.09375 23.484375 -61.921875 31.203125 -61.921875 C 38.359375 -61.921875 44.066406 -60.253906 48.328125 -56.921875 C 52.597656 -53.585938 55.140625 -49 55.953125 -43.15625 L 41.203125 -43.15625 C 40.304688 -47.625 36.929688 -49.859375 31.078125 -49.859375 C 28.148438 -49.859375 25.894531 -49.285156 24.3125 -48.140625 C 22.726562 -47.003906 21.9375 -45.582031 21.9375 -43.875 C 21.9375 -42.09375 23.113281 -40.671875 25.46875 -39.609375 C 27.832031 -38.554688 30.960938 -37.582031 34.859375 -36.6875 C 39.085938 -35.707031 42.96875 -34.628906 46.5 -33.453125 C 50.03125 -32.273438 52.851562 -30.53125 54.96875 -28.21875 C 57.082031 -25.90625 58.140625 -22.59375 58.140625 -18.28125 C 58.222656 -14.539062 57.25 -11.164062 55.21875 -8.15625 C 53.1875 -5.15625 50.257812 -2.800781 46.4375 -1.09375 C 42.625 0.613281 38.113281 1.46875 32.90625 1.46875 Z M 32.90625 1.46875 "/></g></g></g><g fill="#ffffff" fill-opacity="1"><g transform="translate(365.374975, 1165.447896)"><g><path d="M 34.859375 0 C 28.523438 0 23.445312 -1.539062 19.625 -4.625 C 15.800781 -7.71875 13.890625 -13.207031 13.890625 -21.09375 L 13.890625 -47.421875 L 3.53125 -47.421875 L 3.53125 -60.453125 L 13.890625 -60.453125 L 15.71875 -76.671875 L 29.5 -76.671875 L 29.5 -60.453125 L 45.828125 -60.453125 L 45.828125 -47.421875 L 29.5 -47.421875 L 29.5 -20.96875 C 29.5 -18.039062 30.128906 -16.023438 31.390625 -14.921875 C 32.648438 -13.828125 34.820312 -13.28125 37.90625 -13.28125 L 45.46875 -13.28125 L 45.46875 0 Z M 34.859375 0 "/></g></g></g><g fill="#ffffff" fill-opacity="1"><g transform="translate(416.691163, 1165.447896)"><g><path d="M 37.296875 1.46875 C 31.203125 1.46875 25.796875 0.164062 21.078125 -2.4375 C 16.367188 -5.039062 12.671875 -8.695312 9.984375 -13.40625 C 7.304688 -18.125 5.96875 -23.566406 5.96875 -29.734375 C 5.96875 -35.992188 7.285156 -41.5625 9.921875 -46.4375 C 12.566406 -51.3125 16.222656 -55.109375 20.890625 -57.828125 C 25.566406 -60.554688 31.078125 -61.921875 37.421875 -61.921875 C 43.347656 -61.921875 48.585938 -60.617188 53.140625 -58.015625 C 57.691406 -55.421875 61.25 -51.867188 63.8125 -47.359375 C 66.375 -42.847656 67.65625 -37.828125 67.65625 -32.296875 C 67.65625 -31.398438 67.632812 -30.460938 67.59375 -29.484375 C 67.550781 -28.515625 67.488281 -27.503906 67.40625 -26.453125 L 21.453125 -26.453125 C 21.773438 -21.734375 23.421875 -18.03125 26.390625 -15.34375 C 29.359375 -12.664062 32.953125 -11.328125 37.171875 -11.328125 C 40.347656 -11.328125 43.007812 -12.039062 45.15625 -13.46875 C 47.3125 -14.894531 48.914062 -16.742188 49.96875 -19.015625 L 65.828125 -19.015625 C 64.679688 -15.191406 62.785156 -11.71875 60.140625 -8.59375 C 57.503906 -5.46875 54.253906 -3.007812 50.390625 -1.21875 C 46.535156 0.570312 42.171875 1.46875 37.296875 1.46875 Z M 37.421875 -49.25 C 33.597656 -49.25 30.222656 -48.171875 27.296875 -46.015625 C 24.378906 -43.859375 22.515625 -40.585938 21.703125 -36.203125 L 51.796875 -36.203125 C 51.554688 -40.179688 50.09375 -43.347656 47.40625 -45.703125 C 44.726562 -48.066406 41.398438 -49.25 37.421875 -49.25 Z M 37.421875 -49.25 "/></g></g></g><g fill="#ffffff" fill-opacity="1"><g transform="translate(489.582119, 1165.447896)"><g><path d="M 7.921875 0 L 7.921875 -60.453125 L 21.8125 -60.453125 L 23.28125 -49.125 C 25.476562 -53.019531 28.460938 -56.125 32.234375 -58.4375 C 36.015625 -60.757812 40.46875 -61.921875 45.59375 -61.921875 L 45.59375 -45.46875 L 41.203125 -45.46875 C 37.785156 -45.46875 34.734375 -44.9375 32.046875 -43.875 C 29.367188 -42.820312 27.28125 -40.992188 25.78125 -38.390625 C 24.28125 -35.796875 23.53125 -32.179688 23.53125 -27.546875 L 23.53125 0 Z M 7.921875 0 "/></g></g></g><g fill="#ffffff" fill-opacity="1"><g transform="translate(537.851024, 1165.447896)"><g/></g></g><g fill="#ffffff" fill-opacity="1"><g transform="translate(566.861125, 1165.447896)"><g><path d="M 8.28125 0 L 8.28125 -85.328125 L 23.890625 -85.328125 L 64 -25.234375 L 64 -85.328125 L 79.59375 -85.328125 L 79.59375 0 L 64 0 L 23.890625 -59.96875 L 23.890625 0 Z M 8.28125 0 "/></g></g></g><g fill="#ffffff" fill-opacity="1"><g transform="translate(654.744731, 1165.447896)"><g><path d="M 36.9375 1.46875 C 31.082031 1.46875 25.816406 0.128906 21.140625 -2.546875 C 16.472656 -5.234375 12.773438 -8.953125 10.046875 -13.703125 C 7.328125 -18.460938 5.96875 -23.972656 5.96875 -30.234375 C 5.96875 -36.484375 7.347656 -41.984375 10.109375 -46.734375 C 12.878906 -51.492188 16.597656 -55.210938 21.265625 -57.890625 C 25.941406 -60.578125 31.207031 -61.921875 37.0625 -61.921875 C 42.820312 -61.921875 48.035156 -60.578125 52.703125 -57.890625 C 57.378906 -55.210938 61.078125 -51.492188 63.796875 -46.734375 C 66.523438 -41.984375 67.890625 -36.484375 67.890625 -30.234375 C 67.890625 -23.972656 66.523438 -18.460938 63.796875 -13.703125 C 61.078125 -8.953125 57.363281 -5.234375 52.65625 -2.546875 C 47.945312 0.128906 42.707031 1.46875 36.9375 1.46875 Z M 36.9375 -12.0625 C 41 -12.0625 44.53125 -13.582031 47.53125 -16.625 C 50.539062 -19.675781 52.046875 -24.210938 52.046875 -30.234375 C 52.046875 -36.242188 50.539062 -40.769531 47.53125 -43.8125 C 44.53125 -46.863281 41.039062 -48.390625 37.0625 -48.390625 C 32.914062 -48.390625 29.359375 -46.863281 26.390625 -43.8125 C 23.421875 -40.769531 21.9375 -36.242188 21.9375 -30.234375 C 21.9375 -24.210938 23.421875 -19.675781 26.390625 -16.625 C 29.359375 -13.582031 32.875 -12.0625 36.9375 -12.0625 Z M 36.9375 -12.0625 "/></g></g></g><g fill="#ffffff" fill-opacity="1"><g transform="translate(728.610794, 1165.447896)"><g><path d="M 34.859375 0 C 28.523438 0 23.445312 -1.539062 19.625 -4.625 C 15.800781 -7.71875 13.890625 -13.207031 13.890625 -21.09375 L 13.890625 -47.421875 L 3.53125 -47.421875 L 3.53125 -60.453125 L 13.890625 -60.453125 L 15.71875 -76.671875 L 29.5 -76.671875 L 29.5 -60.453125 L 45.828125 -60.453125 L 45.828125 -47.421875 L 29.5 -47.421875 L 29.5 -20.96875 C 29.5 -18.039062 30.128906 -16.023438 31.390625 -14.921875 C 32.648438 -13.828125 34.820312 -13.28125 37.90625 -13.28125 L 45.46875 -13.28125 L 45.46875 0 Z M 34.859375 0 "/></g></g></g><g fill="#ffffff" fill-opacity="1"><g transform="translate(779.927005, 1165.447896)"><g/></g></g><g fill="#ffffff" fill-opacity="1"><g transform="translate(808.937105, 1165.447896)"><g><path d="M 2.796875 0 L 34 -85.328125 L 51.5625 -85.328125 L 82.765625 0 L 66.1875 0 L 59.359375 -19.75 L 26.078125 -19.75 L 19.140625 0 Z M 30.34375 -31.9375 L 55.09375 -31.9375 L 42.65625 -67.40625 Z M 30.34375 -31.9375 "/></g></g></g><g fill="#ffffff" fill-opacity="1"><g transform="translate(894.38283, 1165.447896)"><g><path d="M 24.25 0 L 2.078125 -60.453125 L 18.40625 -60.453125 L 33.765625 -14.75 L 49.125 -60.453125 L 65.453125 -60.453125 L 43.15625 0 Z M 24.25 0 "/></g></g></g><g fill="#ffffff" fill-opacity="1"><g transform="translate(961.788645, 1165.447896)"><g><path d="M 28.765625 1.46875 C 23.566406 1.46875 19.300781 0.632812 15.96875 -1.03125 C 12.632812 -2.695312 10.15625 -4.910156 8.53125 -7.671875 C 6.90625 -10.441406 6.09375 -13.492188 6.09375 -16.828125 C 6.09375 -22.429688 8.285156 -26.976562 12.671875 -30.46875 C 17.066406 -33.96875 23.648438 -35.71875 32.421875 -35.71875 L 47.78125 -35.71875 L 47.78125 -37.171875 C 47.78125 -41.316406 46.601562 -44.363281 44.25 -46.3125 C 41.894531 -48.269531 38.96875 -49.25 35.46875 -49.25 C 32.300781 -49.25 29.535156 -48.492188 27.171875 -46.984375 C 24.816406 -45.484375 23.359375 -43.269531 22.796875 -40.34375 L 7.5625 -40.34375 C 7.96875 -44.726562 9.445312 -48.546875 12 -51.796875 C 14.5625 -55.046875 17.875 -57.546875 21.9375 -59.296875 C 26 -61.046875 30.550781 -61.921875 35.59375 -61.921875 C 44.207031 -61.921875 50.992188 -59.765625 55.953125 -55.453125 C 60.910156 -51.148438 63.390625 -45.054688 63.390625 -37.171875 L 63.390625 0 L 50.09375 0 L 48.640625 -9.75 C 46.847656 -6.5 44.347656 -3.816406 41.140625 -1.703125 C 37.929688 0.410156 33.804688 1.46875 28.765625 1.46875 Z M 32.296875 -10.71875 C 36.765625 -10.71875 40.238281 -12.179688 42.71875 -15.109375 C 45.195312 -18.035156 46.765625 -21.65625 47.421875 -25.96875 L 34.125 -25.96875 C 29.976562 -25.96875 27.007812 -25.210938 25.21875 -23.703125 C 23.4375 -22.203125 22.546875 -20.351562 22.546875 -18.15625 C 22.546875 -15.800781 23.4375 -13.972656 25.21875 -12.671875 C 27.007812 -11.367188 29.367188 -10.71875 32.296875 -10.71875 Z M 32.296875 -10.71875 "/></g></g></g><g fill="#ffffff" fill-opacity="1"><g transform="translate(1032.119872, 1165.447896)"><g><path d="M 16.328125 -69.84375 C 13.484375 -69.84375 11.144531 -70.695312 9.3125 -72.40625 C 7.488281 -74.113281 6.578125 -76.265625 6.578125 -78.859375 C 6.578125 -81.460938 7.488281 -83.597656 9.3125 -85.265625 C 11.144531 -86.929688 13.484375 -87.765625 16.328125 -87.765625 C 19.171875 -87.765625 21.503906 -86.929688 23.328125 -85.265625 C 25.160156 -83.597656 26.078125 -81.460938 26.078125 -78.859375 C 26.078125 -76.265625 25.160156 -74.113281 23.328125 -72.40625 C 21.503906 -70.695312 19.171875 -69.84375 16.328125 -69.84375 Z M 8.53125 0 L 8.53125 -60.453125 L 24.140625 -60.453125 L 24.140625 0 Z M 8.53125 0 "/></g></g></g><g fill="#ffffff" fill-opacity="1"><g transform="translate(1064.664854, 1165.447896)"><g><path d="M 7.921875 0 L 7.921875 -87.765625 L 23.53125 -87.765625 L 23.53125 0 Z M 7.921875 0 "/></g></g></g><g fill="#ffffff" fill-opacity="1"><g transform="translate(1096.234684, 1165.447896)"><g><path d="M 28.765625 1.46875 C 23.566406 1.46875 19.300781 0.632812 15.96875 -1.03125 C 12.632812 -2.695312 10.15625 -4.910156 8.53125 -7.671875 C 6.90625 -10.441406 6.09375 -13.492188 6.09375 -16.828125 C 6.09375 -22.429688 8.285156 -26.976562 12.671875 -30.46875 C 17.066406 -33.96875 23.648438 -35.71875 32.421875 -35.71875 L 47.78125 -35.71875 L 47.78125 -37.171875 C 47.78125 -41.316406 46.601562 -44.363281 44.25 -46.3125 C 41.894531 -48.269531 38.96875 -49.25 35.46875 -49.25 C 32.300781 -49.25 29.535156 -48.492188 27.171875 -46.984375 C 24.816406 -45.484375 23.359375 -43.269531 22.796875 -40.34375 L 7.5625 -40.34375 C 7.96875 -44.726562 9.445312 -48.546875 12 -51.796875 C 14.5625 -55.046875 17.875 -57.546875 21.9375 -59.296875 C 26 -61.046875 30.550781 -61.921875 35.59375 -61.921875 C 44.207031 -61.921875 50.992188 -59.765625 55.953125 -55.453125 C 60.910156 -51.148438 63.390625 -45.054688 63.390625 -37.171875 L 63.390625 0 L 50.09375 0 L 48.640625 -9.75 C 46.847656 -6.5 44.347656 -3.816406 41.140625 -1.703125 C 37.929688 0.410156 33.804688 1.46875 28.765625 1.46875 Z M 32.296875 -10.71875 C 36.765625 -10.71875 40.238281 -12.179688 42.71875 -15.109375 C 45.195312 -18.035156 46.765625 -21.65625 47.421875 -25.96875 L 34.125 -25.96875 C 29.976562 -25.96875 27.007812 -25.210938 25.21875 -23.703125 C 23.4375 -22.203125 22.546875 -20.351562 22.546875 -18.15625 C 22.546875 -15.800781 23.4375 -13.972656 25.21875 -12.671875 C 27.007812 -11.367188 29.367188 -10.71875 32.296875 -10.71875 Z M 32.296875 -10.71875 "/></g></g></g><g fill="#ffffff" fill-opacity="1"><g transform="translate(1166.565911, 1165.447896)"><g><path d="M 43.765625 1.46875 C 39.210938 1.46875 35.226562 0.613281 31.8125 -1.09375 C 28.394531 -2.800781 25.632812 -5.195312 23.53125 -8.28125 L 21.8125 0 L 7.921875 0 L 7.921875 -87.765625 L 23.53125 -87.765625 L 23.53125 -51.796875 C 25.476562 -54.484375 28.054688 -56.84375 31.265625 -58.875 C 34.472656 -60.90625 38.640625 -61.921875 43.765625 -61.921875 C 49.453125 -61.921875 54.53125 -60.535156 59 -57.765625 C 63.46875 -55.003906 67 -51.226562 69.59375 -46.4375 C 72.195312 -41.644531 73.5 -36.203125 73.5 -30.109375 C 73.5 -24.015625 72.195312 -18.585938 69.59375 -13.828125 C 67 -9.078125 63.46875 -5.335938 59 -2.609375 C 54.53125 0.109375 49.453125 1.46875 43.765625 1.46875 Z M 40.46875 -12.1875 C 45.425781 -12.1875 49.53125 -13.851562 52.78125 -17.1875 C 56.03125 -20.519531 57.65625 -24.828125 57.65625 -30.109375 C 57.65625 -35.390625 56.03125 -39.734375 52.78125 -43.140625 C 49.53125 -46.554688 45.425781 -48.265625 40.46875 -48.265625 C 35.425781 -48.265625 31.300781 -46.578125 28.09375 -43.203125 C 24.882812 -39.835938 23.28125 -35.515625 23.28125 -30.234375 C 23.28125 -24.953125 24.882812 -20.625 28.09375 -17.25 C 31.300781 -13.875 35.425781 -12.1875 40.46875 -12.1875 Z M 40.46875 -12.1875 "/></g></g></g><g fill="#ffffff" fill-opacity="1"><g transform="translate(1246.038918, 1165.447896)"><g><path d="M 7.921875 0 L 7.921875 -87.765625 L 23.53125 -87.765625 L 23.53125 0 Z M 7.921875 0 "/></g></g></g><g fill="#ffffff" fill-opacity="1"><g transform="translate(1277.608747, 1165.447896)"><g><path d="M 37.296875 1.46875 C 31.203125 1.46875 25.796875 0.164062 21.078125 -2.4375 C 16.367188 -5.039062 12.671875 -8.695312 9.984375 -13.40625 C 7.304688 -18.125 5.96875 -23.566406 5.96875 -29.734375 C 5.96875 -35.992188 7.285156 -41.5625 9.921875 -46.4375 C 12.566406 -51.3125 16.222656 -55.109375 20.890625 -57.828125 C 25.566406 -60.554688 31.078125 -61.921875 37.421875 -61.921875 C 43.347656 -61.921875 48.585938 -60.617188 53.140625 -58.015625 C 57.691406 -55.421875 61.25 -51.867188 63.8125 -47.359375 C 66.375 -42.847656 67.65625 -37.828125 67.65625 -32.296875 C 67.65625 -31.398438 67.632812 -30.460938 67.59375 -29.484375 C 67.550781 -28.515625 67.488281 -27.503906 67.40625 -26.453125 L 21.453125 -26.453125 C 21.773438 -21.734375 23.421875 -18.03125 26.390625 -15.34375 C 29.359375 -12.664062 32.953125 -11.328125 37.171875 -11.328125 C 40.347656 -11.328125 43.007812 -12.039062 45.15625 -13.46875 C 47.3125 -14.894531 48.914062 -16.742188 49.96875 -19.015625 L 65.828125 -19.015625 C 64.679688 -15.191406 62.785156 -11.71875 60.140625 -8.59375 C 57.503906 -5.46875 54.253906 -3.007812 50.390625 -1.21875 C 46.535156 0.570312 42.171875 1.46875 37.296875 1.46875 Z M 37.421875 -49.25 C 33.597656 -49.25 30.222656 -48.171875 27.296875 -46.015625 C 24.378906 -43.859375 22.515625 -40.585938 21.703125 -36.203125 L 51.796875 -36.203125 C 51.554688 -40.179688 50.09375 -43.347656 47.40625 -45.703125 C 44.726562 -48.066406 41.398438 -49.25 37.421875 -49.25 Z M 37.421875 -49.25 "/></g></g></g></svg>